<?xml version="1.0" encoding="UTF-8"?>
<!DOCTYPE svg PUBLIC "-//W3C//DTD SVG 1.1//EN" "http://www.w3.org/Graphics/SVG/1.1/DTD/svg11.dtd">
<svg xmlns="http://www.w3.org/2000/svg" version="1.1" width="500px" height="500px" style="shape-rendering:geometricPrecision; text-rendering:geometricPrecision; image-rendering:optimizeQuality; fill-rule:evenodd; clip-rule:evenodd" xmlns:xlink="http://www.w3.org/1999/xlink">
<g><path style="opacity:1" fill="#fefefe" d="M -0.5,-0.5 C 166.167,-0.5 332.833,-0.5 499.5,-0.5C 499.5,166.167 499.5,332.833 499.5,499.5C 332.833,499.5 166.167,499.5 -0.5,499.5C -0.5,332.833 -0.5,166.167 -0.5,-0.5 Z"/></g>
<g><path style="opacity:1" fill="#81d95a" d="M 237.5,130.5 C 238.5,130.5 239.5,130.5 240.5,130.5C 241.441,135.733 241.441,140.9 240.5,146C 223.707,154.398 206.707,162.232 189.5,169.5C 189.744,188.732 194.577,206.732 204,223.5C 207.333,228.833 210.667,234.167 214,239.5C 206.806,225.948 201.14,211.615 197,196.5C 195.158,188.589 194.491,180.589 195,172.5C 216.09,162.039 237.257,151.705 258.5,141.5C 259.086,141.709 259.586,142.043 260,142.5C 260.802,147.419 260.635,152.252 259.5,157C 243.543,164.597 227.543,172.097 211.5,179.5C 211.476,201.069 216.642,221.402 227,240.5C 229.783,244.951 232.95,249.117 236.5,253C 231.338,255.129 226.005,255.796 220.5,255C 195.778,228.734 179.444,197.901 171.5,162.5C 171.046,159.776 172.046,157.943 174.5,157C 195.804,148.629 216.804,139.796 237.5,130.5 Z"/></g>
<g><path style="opacity:1" fill="#13c067" d="M 185.5,230.5 C 186.167,230.5 186.5,230.833 186.5,231.5C 185.287,247.113 192.287,256.613 207.5,260C 226.946,260.972 244.946,256.305 261.5,246C 279.218,234.948 294.384,221.115 307,204.5C 323.922,174.183 315.422,156.016 281.5,150C 291.62,147.913 301.62,148.58 311.5,152C 325.533,160.247 330.699,172.414 327,188.5C 323.025,202.117 316.692,214.451 308,225.5C 292.627,243.594 274.127,257.427 252.5,267C 238.634,272.441 224.301,274.774 209.5,274C 187.371,267.525 179.371,253.025 185.5,230.5 Z"/></g>
<g><path style="opacity:1" fill="#12c066" d="M 277.5,153.5 C 278.765,154.514 279.431,156.014 279.5,158C 275.711,181.528 275.544,205.028 279,228.5C 267.888,237.643 255.722,245.143 242.5,251C 241.167,251.667 239.833,251.667 238.5,251C 224.107,231.807 216.107,210.14 214.5,186C 214.833,184.5 215.167,183 215.5,181.5C 236.257,172.117 256.924,162.784 277.5,153.5 Z"/></g>
<g><path style="opacity:1" fill="#abf770" d="M 227.5,178.5 C 228.239,178.369 228.906,178.536 229.5,179C 226.577,181.045 223.743,183.212 221,185.5C 220.857,189.619 220.19,193.619 219,197.5C 218.774,193.113 218.274,188.779 217.5,184.5C 220.897,182.474 224.23,180.474 227.5,178.5 Z"/></g>
<g><path style="opacity:1" fill="#fafdfc" d="M 243.5,182.5 C 245.185,183.184 246.185,184.517 246.5,186.5C 250.768,187.396 254.768,188.896 258.5,191C 259.861,192.584 260.528,194.418 260.5,196.5C 258.323,196.586 256.323,197.253 254.5,198.5C 253.472,196.639 251.972,195.305 250,194.5C 249.952,197.878 250.452,201.211 251.5,204.5C 263.435,202.602 268.602,207.602 267,219.5C 265.333,222.5 263,224.833 260,226.5C 259.316,227.784 259.483,228.951 260.5,230C 258.661,231.132 256.661,231.965 254.5,232.5C 253.713,231.758 253.047,230.925 252.5,230C 245.266,230.552 239.932,227.718 236.5,221.5C 240.274,217.795 243.607,217.962 246.5,222C 247.833,222.667 249.167,222.667 250.5,222C 249.58,219.165 248.58,216.332 247.5,213.5C 234.906,213.428 230.073,207.428 233,195.5C 234.359,193.308 236.192,191.641 238.5,190.5C 239.681,188.865 239.681,187.198 238.5,185.5C 240.145,184.304 241.811,183.304 243.5,182.5 Z"/></g>
<g><path style="opacity:1" fill="#30c674" d="M 240.5,196.5 C 242.555,198.234 243.888,200.567 244.5,203.5C 238.405,204.29 237.072,201.956 240.5,196.5 Z"/></g>
<g><path style="opacity:1" fill="#27c470" d="M 254.5,211.5 C 259.708,211.369 261.375,213.702 259.5,218.5C 258.675,219.386 257.675,219.719 256.5,219.5C 256.037,216.779 255.371,214.112 254.5,211.5 Z"/></g>
<g><path style="opacity:1" fill="#7fdeaf" d="M 186.5,231.5 C 186.5,230.833 186.167,230.5 185.5,230.5C 186.176,228.141 187.009,225.808 188,223.5C 188.193,226.364 187.693,229.03 186.5,231.5 Z"/></g>
<g><path style="opacity:1" fill="#80d95a" d="M 289.5,248.5 C 295.131,251.982 301.131,254.982 307.5,257.5C 291.431,276.92 271.765,282.086 248.5,273C 263.854,267.337 277.52,259.17 289.5,248.5 Z"/></g>
<g><path style="opacity:1" fill="#d4d5d7" d="M 245.5,284.5 C 263.503,284.333 281.503,284.5 299.5,285C 304.533,285.171 309.533,285.671 314.5,286.5C 286.855,288.966 259.189,289.133 231.5,287C 231.833,286.667 232.167,286.333 232.5,286C 237.019,285.825 241.353,285.325 245.5,284.5 Z"/></g>
<g><path style="opacity:1" fill="#b6b6b6" d="M 266.5,323.5 C 267.833,323.5 269.167,323.5 270.5,323.5C 270.658,326.545 269.991,329.379 268.5,332C 260.479,332.832 252.479,332.665 244.5,331.5C 245.145,330.354 245.978,329.354 247,328.5C 248.667,322.833 250.333,317.167 252,311.5C 252.651,309.765 252.485,308.098 251.5,306.5C 259.145,305.335 266.812,305.169 274.5,306C 275.285,308.443 275.119,310.943 274,313.5C 272.951,314.517 271.784,314.684 270.5,314C 269.445,309.954 266.779,308.454 262.5,309.5C 261.637,311.895 261.637,314.229 262.5,316.5C 264.173,314.914 266.173,314.247 268.5,314.5C 267.99,317.539 267.323,320.539 266.5,323.5 Z"/></g>
<g><path style="opacity:1" fill="#78ba5b" d="M 139.5,305.5 C 144.214,305.173 148.88,305.507 153.5,306.5C 149.315,313.217 146.648,320.55 145.5,328.5C 149.326,328.203 152.326,326.37 154.5,323C 158.788,322.944 161.288,320.777 162,316.5C 169.459,309.081 177.126,308.748 185,315.5C 185.333,317.833 185.667,320.167 186,322.5C 190.533,320.964 195.2,319.964 200,319.5C 200.808,317.421 200.641,315.421 199.5,313.5C 198.734,318.15 196.068,319.65 191.5,318C 190.065,315.733 190.398,313.733 192.5,312C 197.652,309.878 202.652,310.211 207.5,313C 208.944,314.126 209.61,315.626 209.5,317.5C 209.069,320.389 208.403,323.222 207.5,326C 208.34,327.171 209.173,328.338 210,329.5C 212.786,323.842 214.286,318.009 214.5,312C 219.177,309.401 223.011,310.234 226,314.5C 229.731,310.95 233.731,310.617 238,313.5C 238.232,317.826 237.398,321.992 235.5,326C 238.309,328.564 237.976,330.564 234.5,332C 231.571,332.777 228.737,332.61 226,331.5C 225.219,330.271 224.719,328.938 224.5,327.5C 225.597,324.71 226.597,321.877 227.5,319C 226.352,317.274 225.185,317.441 224,319.5C 221.864,323.367 221.364,327.367 222.5,331.5C 215.942,332.224 209.442,332.558 203,332.5C 200.855,332.604 199.021,331.937 197.5,330.5C 190.628,334.479 186.128,332.813 184,325.5C 179.121,332.016 172.621,334.182 164.5,332C 161.619,330.749 159.786,328.583 159,325.5C 158.205,327.901 157.038,330.068 155.5,332C 147.812,332.831 140.145,332.665 132.5,331.5C 133.145,330.354 133.978,329.354 135,328.5C 136.514,322.777 138.18,317.11 140,311.5C 140.49,309.455 140.323,307.455 139.5,305.5 Z"/></g>
<g><path style="opacity:1" fill="#b6b6b6" d="M 277.5,311.5 C 282.439,310.352 285.939,312.019 288,316.5C 289.124,311.885 291.957,310.385 296.5,312C 297.749,314.21 297.582,316.376 296,318.5C 294.542,319.747 293.042,319.747 291.5,318.5C 290.5,318.833 289.833,319.5 289.5,320.5C 290.167,322.167 290.833,323.833 291.5,325.5C 292.325,326.386 293.325,326.719 294.5,326.5C 293.203,331.655 289.87,333.488 284.5,332C 283.213,330.59 282.046,329.09 281,327.5C 279.68,331.182 277.18,332.682 273.5,332C 271.327,330.135 270.993,327.969 272.5,325.5C 275.184,325.024 277.517,324.024 279.5,322.5C 278.557,319.6 276.89,317.267 274.5,315.5C 275.172,313.84 276.172,312.507 277.5,311.5 Z"/></g>
<g><path style="opacity:1" fill="#b6b6b6" d="M 314.5,310.5 C 318.683,309.846 321.516,311.512 323,315.5C 323.847,327.822 318.013,333.822 305.5,333.5C 304.691,335.792 304.357,337.959 304.5,340C 300.129,340.828 295.795,340.661 291.5,339.5C 295.973,330.932 298.473,321.932 299,312.5C 303.005,310.935 306.838,311.268 310.5,313.5C 311.901,312.479 313.235,311.479 314.5,310.5 Z"/></g>
<g><path style="opacity:1" fill="#b6b6b6" d="M 354.5,310.5 C 359.241,309.963 363.574,310.963 367.5,313.5C 369.04,316.291 368.706,318.791 366.5,321C 362.571,322.029 358.571,322.863 354.5,323.5C 357.006,326.673 360.173,327.339 364,325.5C 365.278,328.979 363.778,331.145 359.5,332C 350.141,333.804 345.474,329.97 345.5,320.5C 341.818,321.275 339.318,319.941 338,316.5C 336.117,320.142 334.617,323.975 333.5,328C 333.95,329.285 334.617,330.452 335.5,331.5C 330.833,332.833 326.167,332.833 321.5,331.5C 324.726,325.845 326.059,319.845 325.5,313.5C 329.489,310.91 333.489,310.91 337.5,313.5C 341.814,310.356 345.314,311.023 348,315.5C 349.965,313.45 352.132,311.783 354.5,310.5 Z"/></g>
<g><path style="opacity:1" fill="#b6b6b6" d="M 375.5,310.5 C 379.915,310.305 384.249,310.805 388.5,312C 391.73,313.724 392.064,315.724 389.5,318C 384.801,319.713 382.468,318.213 382.5,313.5C 379.834,313.066 378.667,314.066 379,316.5C 383.095,318.797 386.928,321.464 390.5,324.5C 395.178,322.833 397.845,324.5 398.5,329.5C 400.346,329.778 401.68,329.111 402.5,327.5C 400.143,324.898 397.31,322.898 394,321.5C 391.494,316.341 392.994,312.841 398.5,311C 403.989,310.016 409.155,310.849 414,313.5C 414.833,316.818 413.499,318.485 410,318.5C 406.918,318.252 405.418,316.585 405.5,313.5C 403.654,313.222 402.32,313.889 401.5,315.5C 404.533,318.44 408.033,320.774 412,322.5C 413.123,325.956 412.29,328.79 409.5,331C 404.618,332.555 399.618,332.888 394.5,332C 391.943,331.315 390.109,329.815 389,327.5C 387.661,330.094 385.494,331.594 382.5,332C 378.5,332.667 374.5,332.667 370.5,332C 366.896,330.666 365.729,328.166 367,324.5C 372.019,322.35 374.519,324.016 374.5,329.5C 375.833,329.5 377.167,329.5 378.5,329.5C 378.657,328.127 378.49,326.793 378,325.5C 375.913,324.206 373.746,323.039 371.5,322C 369.556,319.847 369.056,317.347 370,314.5C 371.812,313.023 373.645,311.69 375.5,310.5 Z"/></g>
<g><path style="opacity:1" fill="#f0f0f0" d="M 357.5,314.5 C 358.497,314.47 359.164,314.97 359.5,316C 359.112,317.951 358.112,319.451 356.5,320.5C 355.531,318.383 355.864,316.383 357.5,314.5 Z"/></g>
<g><path style="opacity:1" fill="#f2f8ef" d="M 173.5,314.5 C 174.693,314.97 175.36,315.97 175.5,317.5C 174.611,321.835 172.945,325.835 170.5,329.5C 169.597,324.186 170.597,319.186 173.5,314.5 Z"/></g>
<g><path style="opacity:1" fill="#f7f7f7" d="M 310.5,316.5 C 311.649,316.791 312.316,317.624 312.5,319C 312.391,323.328 310.724,326.828 307.5,329.5C 307.361,325.044 308.361,320.711 310.5,316.5 Z"/></g>
<g><path style="opacity:1" fill="#fafafa" d="M 266.5,323.5 C 264.802,327.85 261.802,329.184 257.5,327.5C 257.93,324.724 259.096,322.39 261,320.5C 262.482,322.112 264.315,323.112 266.5,323.5 Z"/></g>
<g><path style="opacity:1" fill="#f6faf4" d="M 195.5,323.5 C 198.776,323.882 198.776,325.215 195.5,327.5C 194.374,326.192 194.374,324.858 195.5,323.5 Z"/></g>
</svg>
